/* XPM */
static char *dummy[]={
"16 16 147 2",
"Qt c None",
".Q c #017eae",
"## c #0182b4",
".Z c #0188bc",
".P c #018ec4",
".F c #0190c7",
".Y c #019fdb",
".E c #01a7e5",
".0 c #0279a5",
"#. c #0294cc",
"#j c #03749e",
"#a c #0375a0",
".v c #04b1f3",
".R c #0681ae",
".O c #06a9e7",
"#b c #0e759a",
".1 c #0e7698",
".9 c #0ea9e3",
"#k c #0f7295",
".G c #1279a0",
".X c #16b5f2",
".D c #1dbffb",
".N c #22bef9",
".S c #24637a",
"#l c #257d98",
".w c #2680a1",
".u c #2fc6fe",
".8 c #3d6a7a",
".k c #3fb2dc",
"#m c #4394a7",
".W c #45cafb",
".U c #4a7d8e",
"#A c #4b5e63",
"#y c #4b707b",
"#n c #4e95a3",
"#x c #4f656d",
"#z c #51727b",
"#B c #545758",
"#t c #568949",
".C c #56d1fe",
"#c c #5ba183",
"#o c #5c8948",
"#Y c #67696a",
"#X c #696969",
".t c #6fd8fe",
"#i c #717172",
".j c #76dafe",
"a. c #777778",
".V c #78dafe",
"#v c #7a7a7a",
".6 c #828281",
".2 c #84bb87",
"#C c #888f7d",
".B c #89dffe",
".M c #8ee0fe",
".e c #8f8f90",
"#Z c #91b42e",
"ak c #91b430",
"#u c #939494",
"#R c #93b436",
".J c #959ea0",
".l c #95a3a6",
"ap c #95b53e",
"#3 c #95b53f",
"#W c #96b541",
"aj c #97ae5c",
"al c #98c10f",
"am c #98c211",
".z c #99a7ab",
"#N c #9ac127",
"an c #9ac413",
".H c #9b9b9b",
"#h c #9bb657",
"#L c #9bc220",
"#M c #9bc321",
"ao c #9bc411",
"#K c #9cc324",
".m c #a1a1a1",
".s c #a3e6fe",
"ai c #a6c936",
"#4 c #a7a8a7",
".I c #a9a9a7",
".T c #aaaaaa",
"ag c #abe000",
"#O c #adcd3d",
"ah c #ade600",
"#J c #aecc40",
"af c #aee400",
"#Q c #afb0af",
".c c #b3c2c7",
".i c #b4eafe",
".f c #b5b5b5",
".o c #b6bcbd",
"aq c #b6c696",
".5 c #b7cb79",
"ac c #b7ed07",
"a# c #b7f001",
".b c #b8cad0",
"aa c #b8ed09",
"ab c #b8ed10",
"ad c #b8ef02",
"ae c #bebebe",
".x c #bec0bf",
".L c #bfedfe",
"#I c #c0cba0",
".K c #c0e8f6",
"#w c #c1c2c1",
"#P c #c1caa2",
".n c #c2c4c4",
"#H c #c6c8c8",
".d c #c9cfd0",
".r c #caf0fe",
"#G c #cbcccc",
"#F c #cdd1ca",
".a c #cdd1d2",
"#8 c #cffa4f",
"#9 c #cffc37",
"#5 c #cffc3c",
"#D c #d0f97a",
"#6 c #d0fa51",
"#g c #d0fe3a",
"#E c #d1f97a",
"#7 c #d1fa55",
"#e c #d1ff34",
"#s c #d1ff50",
".4 c #d2f652",
"#f c #d3ff47",
".7 c #d4d9da",
"#q c #d5ff62",
".h c #d6f3fe",
"#p c #d6ff63",
".# c #d7dada",
"#r c #d7ff6b",
".y c #d9dada",
".3 c #d9fe5f",
".A c #daf4fe",
"#d c #dcff54",
"#2 c #ddff60",
"#1 c #ddff61",
"#0 c #e0ff64",
".q c #e5f7fe",
"#U c #e5ff6c",
"#V c #e5ff71",
"#T c #e6ff6b",
"#S c #e7ff6e",
".g c #e8f6fa",
".p c #f1fbfe",
"QtQtQtQtQtQtQt.#.a.b.c.dQt.eQtQt",
"QtQtQtQt.f.a.a.g.h.i.j.k.l.mQtQt",
"QtQtQt.n.o.p.q.r.s.t.u.v.w.x.xQt",
"QtQt.y.z.p.A.i.B.C.D.E.F.G.H.IQt",
"QtQt.J.K.L.M.C.N.O.P.Q.R.S.T.HQt",
"QtQt.U.V.W.X.Y.Z.0.1.2.3.4.5.6Qt",
"Qt.7.8.9#.###a#b.w#c#d#e#f#g#hQt",
"Qt.f#i.w#j#k#l#m#n#o#p#q#r#s#tQt",
"#u#v#w#i#x#y#z#A#B#C#h#D#E#h#FQt",
"QtQt#G#G#w.T.m#H#I#J#K#L#M#N#O#P",
"QtQtQtQt.H.f#Q.H#R#S#T#U#U#U#V#W",
"QtQtQtQtQt.m#X#Y#Z#0#1#2#2#1#0#3",
"QtQtQtQtQtQt.m#4#Z#5#6#7#7#8#9#3",
"QtQtQtQtQtQt.ma.#Za#aaababacad#3",
"QtQtQtQtQtQtQtae#Zafagagagagahai",
"QtQtQtQtQtQtQtQtajakalamanaoapaq"};
